HIERARCHY
ROOT Hips
{
	OFFSET 54.055698 -5.681604 85.585197
	CHANNELS 6 Xposition Yposition Zposition Xrotation Yrotation Zrotation
	JOINT spine
	{
		OFFSET 0.000000 -0.367607 6.392601
		CHANNELS 3 Xrotation Yrotation Zrotation
		JOINT spine1
		{
			OFFSET 0.000000 -0.000002 9.176109
			CHANNELS 3 Xrotation Yrotation Zrotation
			JOINT spine2
			{
				OFFSET 0.000000 -0.000001 8.792381
				CHANNELS 3 Xrotation Yrotation Zrotation
				JOINT Neck
				{
					OFFSET 0.000000 -1.076243 22.573700
					CHANNELS 3 Xrotation Yrotation Zrotation
					JOINT Head
					{
						OFFSET 0.000000 -0.000001 6.820114
						CHANNELS 3 Xrotation Yrotation Zrotation
						End Site
						{
							OFFSET 0.000000 5.444268 16.508499
						}
					}
				}
				JOINT RightShoulder
				{
					OFFSET -3.702209 0.515507 9.495087
					CHANNELS 3 Xrotation Yrotation Zrotation
					JOINT RightArm
					{
						OFFSET 0.000000 -0.000002 12.453705
						CHANNELS 3 Xrotation Yrotation Zrotation
						JOINT RightArmRoll
						{
							OFFSET 0.000000 -0.000001 6.286865
							CHANNELS 3 Xrotation Yrotation Zrotation
							JOINT RightForeArm
							{
								OFFSET 0.000000 -0.000003 18.311401
								CHANNELS 3 Xrotation Yrotation Zrotation
								JOINT RightForeArmRoll
								{
									OFFSET 0.000000 -0.000001 7.054825
									CHANNELS 3 Xrotation Yrotation Zrotation
									JOINT RightHand
									{
										OFFSET 0.000000 -0.000002 14.157501
										CHANNELS 3 Xrotation Yrotation Zrotation
										End Site
										{
											OFFSET 0.000000 0.000000 0.100006
										}
									}
								}
							}
						}
					}
				}
				JOINT LeftShoulder
				{
					OFFSET 3.702209 0.515507 9.495087
					CHANNELS 3 Xrotation Yrotation Zrotation
					JOINT LeftArm
					{
						OFFSET 0.000000 -0.000002 12.453705
						CHANNELS 3 Xrotation Yrotation Zrotation
						JOINT LeftArmRoll
						{
							OFFSET 0.000000 -0.000001 6.286865
							CHANNELS 3 Xrotation Yrotation Zrotation
							JOINT LeftForeArm
							{
								OFFSET 0.000000 -0.000003 18.311401
								CHANNELS 3 Xrotation Yrotation Zrotation
								JOINT LeftForeArmRoll
								{
									OFFSET 0.000000 -0.000001 7.054825
									CHANNELS 3 Xrotation Yrotation Zrotation
									JOINT LeftHand
									{
										OFFSET 0.000000 -0.000002 14.157501
										CHANNELS 3 Xrotation Yrotation Zrotation
										End Site
										{
											OFFSET 0.000000 0.000000 0.100006
										}
									}
								}
							}
						}
					}
				}
			}
		}
	}
	JOINT RightUpLeg
	{
		OFFSET -5.666161 0.871610 -1.039032
		CHANNELS 3 Xrotation Yrotation Zrotation
		JOINT RightUpLegRoll
		{
			OFFSET 0.000000 -0.000003 16.600502
			CHANNELS 3 Xrotation Yrotation Zrotation
			JOINT RightLeg
			{
				OFFSET 0.000000 0.000003 -20.557198
				CHANNELS 3 Xrotation Yrotation Zrotation
				JOINT RightLegRoll
				{
					OFFSET 0.000000 -0.000003 20.624397
					CHANNELS 3 Xrotation Yrotation Zrotation
					JOINT RightFoot
					{
						OFFSET 0.000000 -0.000002 17.166397
						CHANNELS 3 Xrotation Yrotation Zrotation
						JOINT RightToeBase
						{
							OFFSET 0.000000 -0.000002 14.350204
							CHANNELS 3 Xrotation Yrotation Zrotation
							End Site
							{
								OFFSET 0.006081 0.801060 6.949707
							}
						}
					}
				}
			}
		}
	}
	JOINT LeftUpLeg
	{
		OFFSET 5.666161 0.871610 -1.039032
		CHANNELS 3 Xrotation Yrotation Zrotation
		JOINT LeftUpLegRoll
		{
			OFFSET 0.000000 -0.000003 16.600601
			CHANNELS 3 Xrotation Yrotation Zrotation
			JOINT LeftLeg
			{
				OFFSET 0.000000 -0.000003 20.557098
				CHANNELS 3 Xrotation Yrotation Zrotation
				JOINT LeftLegRoll
				{
					OFFSET 0.000000 -0.000003 20.815102
					CHANNELS 3 Xrotation Yrotation Zrotation
					JOINT LeftFoot
					{
						OFFSET 0.000000 -0.000002 16.975693
						CHANNELS 3 Xrotation Yrotation Zrotation
						JOINT LeftToeBase
						{
							OFFSET 0.000000 -0.000002 14.350204
							CHANNELS 3 Xrotation Yrotation Zrotation
							End Site
							{
								OFFSET -0.027260 0.801059 6.949707
							}
						}
					}
				}
			}
		}
	}
}
MOTION
Frames: 12
Frame Time: 0.041667
53.054291 -7.956853 85.666290 -4.704227 1.882572 -0.955212 -0.955685 0.098458 -0.112028 2.091640 0.183365 -0.227081 3.736720 0.180632 -0.229262 6.588372 -5.041648 0.179206 1.549390 3.630804 0.587946 -4.961653 -64.874305 -6.365706 -47.339587 -113.035642 -40.521467 0.000001 0.000000 -0.000003 4.297292 -14.378055 0.205267 -0.000005 0.000001 -3.001780 -5.000210 -7.998746 0.000193 -0.667460 53.909051 0.148956 -32.497753 116.364471 27.683943 0.000004 0.000002 0.000002 2.624494 9.076379 0.369500 -0.000004 -0.000007 3.008640 -5.000231 7.998875 -0.000147 3.913613 -177.309279 0.350293 -179.999991 0.000005 -1.158996 174.710160 -2.838875 -0.519740 -0.000004 -0.000001 0.050974 68.761570 6.898679 2.117459 25.465344 -7.355625 -0.000005 2.423945 172.760401 -1.444952 -0.000005 -0.000004 -1.077540 -8.936118 1.150952 0.700279 -0.000006 -0.000000 -0.076777 70.750774 -6.358611 -3.450766 25.458068 7.355619 -0.001725 
53.058392 -7.953864 85.661400 -4.702659 1.883542 -0.955044 -0.955323 0.097802 -0.112402 2.092361 0.182771 -0.227519 3.737439 0.180034 -0.229693 6.586344 -5.042514 0.173737 1.548840 3.626167 0.583155 -4.979029 -64.871313 -6.385300 -47.329697 -113.035840 -40.502530 0.000001 0.000001 -0.000002 4.303434 -14.370663 0.204898 -0.000006 0.000000 -3.001780 -5.000211 -7.998744 0.000193 -0.699917 53.905069 0.187680 -32.464975 116.355059 27.637152 0.000004 0.000001 0.000003 2.635073 9.067393 0.369122 -0.000003 -0.000006 3.008640 -5.000234 7.998875 -0.000149 3.910782 -177.309266 0.350471 -179.999991 0.000005 -1.158996 174.709518 -2.840872 -0.519957 -0.000004 -0.000001 0.050974 68.761249 6.898658 2.117476 25.465339 -7.355624 -0.000003 2.418724 172.760373 -1.443074 -0.000005 -0.000004 -1.077520 -8.941565 1.149206 0.700341 -0.000006 0.000000 -0.076777 70.751799 -6.357199 -3.454569 25.458074 7.355619 -0.001725 
53.045300 -7.933272 85.666496 -4.701031 1.884624 -0.954880 -0.954952 0.097140 -0.112782 2.093100 0.182156 -0.227936 3.738178 0.179413 -0.230103 6.584247 -5.043647 0.168097 1.548002 3.621581 0.578240 -4.997552 -64.868294 -6.406189 -47.321357 -113.035287 -40.486209 -0.000000 0.000002 -0.000002 4.310425 -14.363855 0.204697 -0.000003 0.000001 -3.001780 -5.000212 -7.998744 0.000193 -0.732704 53.900673 0.226766 -32.432890 116.344705 27.591871 0.000004 0.000002 0.000002 2.646353 9.058941 0.368655 -0.000003 -0.000007 3.008641 -5.000233 7.998875 -0.000148 3.907915 -177.310263 0.350552 -179.999991 0.000005 -1.158996 174.708876 -2.842855 -0.520172 -0.000004 -0.000001 0.050974 68.760826 6.898669 2.117504 25.465337 -7.355624 -0.000005 2.413291 172.760360 -1.441139 -0.000004 -0.000004 -1.077490 -8.947310 1.147361 0.700414 -0.000006 0.000000 -0.076777 70.752919 -6.355757 -3.458559 25.458067 7.355620 -0.001726 
53.052097 -7.936296 85.662003 -4.699361 1.885784 -0.954709 -0.954576 0.096477 -0.113165 2.093861 0.181525 -0.228338 3.738938 0.178777 -0.230496 6.582100 -5.044961 0.162335 1.546962 3.617024 0.573237 -5.016826 -64.865132 -6.427947 -47.311286 -113.035417 -40.468632 0.000000 0.000001 -0.000003 4.318002 -14.357331 0.204603 -0.000007 0.000001 -3.001780 -5.000213 -7.998745 0.000193 -0.765720 53.896063 0.266105 -32.399501 116.335156 27.545653 0.000004 0.000001 0.000002 2.658109 9.050865 0.368135 -0.000002 -0.000007 3.008640 -5.000232 7.998876 -0.000148 3.905019 -177.311246 0.350615 -179.999991 0.000005 -1.158996 174.708179 -2.844838 -0.520390 -0.000004 -0.000001 0.050974 68.760409 6.898678 2.117531 25.465337 -7.355625 -0.000005 2.407722 172.759321 -1.439219 -0.000004 -0.000005 -1.077450 -8.953273 1.145435 0.700493 -0.000007 -0.000000 -0.076777 70.754223 -6.354221 -3.462624 25.458068 7.355619 -0.001725 
53.049492 -7.947875 85.668594 -4.697661 1.886985 -0.954547 -0.954196 0.095810 -0.113550 2.094621 0.180885 -0.228731 3.739699 0.178133 -0.230881 6.579938 -5.046384 0.156508 1.545814 3.612488 0.568184 -5.036584 -64.862065 -6.450243 -47.301215 -113.035539 -40.451389 0.000002 -0.000000 -0.000003 4.325923 -14.351001 0.204573 -0.000005 0.000001 -3.001780 -5.000212 -7.998743 0.000193 -0.798863 53.891357 0.305584 -32.365883 116.325566 27.499491 0.000002 0.000002 0.000002 2.670152 9.043007 0.367580 -0.000003 -0.000006 3.008640 -5.000232 7.998876 -0.000148 3.902102 -177.312230 0.350666 -179.999991 0.000005 -1.158996 174.707524 -2.846834 -0.519611 -0.000004 -0.000001 0.050974 68.760088 6.898658 2.117449 25.465344 -7.355625 -0.000004 2.402070 172.758297 -1.437278 -0.000004 -0.000004 -1.077410 -8.959370 1.143460 0.700576 -0.000007 -0.000000 -0.076777 70.755528 -6.352686 -3.466688 25.458074 7.355619 -0.001725 
53.040596 -7.942154 85.704300 -4.695966 1.888205 -0.954383 -0.953813 0.095144 -0.113936 2.095380 0.180244 -0.229121 3.740459 0.177487 -0.231264 6.577763 -5.047826 0.150662 1.544631 3.607961 0.563119 -5.056434 -64.858875 -6.472650 -47.290976 -113.035601 -40.434095 0.000002 0.000000 -0.000003 4.333924 -14.344669 0.204552 -0.000002 0.000001 -3.001780 -5.000212 -7.998743 0.000193 -0.832035 53.886627 0.345093 -32.332258 116.315977 27.453373 0.000004 0.000001 0.000002 2.682269 9.035197 0.367021 -0.000003 -0.000006 3.008640 -5.000232 7.998875 -0.000147 3.899188 -177.313213 0.350716 -179.999991 0.000005 -1.158996 174.706827 -2.848817 -0.519829 -0.000004 -0.000001 0.050974 68.759658 6.898669 2.117476 25.465339 -7.355624 -0.000004 2.396398 172.758270 -1.435293 -0.000004 -0.000004 -1.077370 -8.965495 1.141485 0.700662 -0.000006 0.000000 -0.076776 70.756839 -6.351151 -3.470850 25.458070 7.355619 -0.001726 
53.047096 -7.941312 85.699997 -4.694281 1.889395 -0.954221 -0.953431 0.094478 -0.114321 2.096140 0.179607 -0.229516 3.741209 0.176845 -0.231651 6.575599 -5.049219 0.144851 1.543500 3.603416 0.558080 -5.076067 -64.855809 -6.494812 -47.280899 -113.035724 -40.416784 0.000001 -0.000000 -0.000003 4.341763 -14.338346 0.204507 -0.000006 0.000001 -3.001780 -5.000206 -7.998745 0.000193 -0.865130 53.881894 0.384516 -32.298807 116.306456 27.407285 0.000004 0.000001 0.000002 2.694237 9.027278 0.366482 -0.000003 -0.000007 3.008640 -5.000232 7.998875 -0.000147 3.896283 -177.314211 0.350770 -179.999991 0.000005 -1.158996 174.706144 -2.849807 -0.519955 -0.000004 -0.000001 0.050975 68.759248 6.898675 2.117505 25.465343 -7.355625 -0.000003 2.390770 172.757245 -1.433354 -0.000005 -0.000005 -1.077340 -8.971558 1.139530 0.700744 -0.000007 -0.000000 -0.076777 70.758137 -6.349616 -3.475016 25.458068 7.355619 -0.001726 
53.041794 -7.941591 85.659805 -4.692622 1.890537 -0.954053 -0.953057 0.093815 -0.114702 2.096891 0.178981 -0.229921 3.741958 0.176213 -0.232049 6.573473 -5.050482 0.139125 1.542520 3.598848 0.553101 -5.095112 -64.852646 -6.516297 -47.272542 -113.035184 -40.400880 -0.000001 0.000001 -0.000003 4.349170 -14.331724 0.204374 -0.000005 0.000001 -3.001780 -5.000213 -7.998744 0.000193 -0.898051 53.877345 0.423746 -32.265315 116.296934 27.360848 0.000005 0.000001 0.000002 2.705862 9.019102 0.365990 -0.000002 -0.000006 3.008640 -5.000232 7.998876 -0.000148 3.893385 -177.315208 0.350837 -179.999991 0.000005 -1.158996 174.705488 -2.851803 -0.520173 -0.000004 -0.000001 0.050974 68.758927 6.898657 2.117521 25.465343 -7.355625 -0.000004 2.385235 172.757218 -1.431406 -0.000005 -0.000004 -1.077300 -8.977464 1.137624 0.700819 -0.000006 -0.000000 -0.076777 70.759353 -6.348111 -3.478991 25.458068 7.355619 -0.001725 
53.039200 -7.925796 85.674004 -4.691010 1.891588 -0.953890 -0.952692 0.093155 -0.115080 2.097631 0.178371 -0.230345 3.742698 0.175599 -0.232465 6.571396 -5.051527 0.133535 1.541771 3.594251 0.548222 -5.113255 -64.849620 -6.536761 -47.262488 -113.035314 -40.382418 0.000002 -0.000001 -0.000003 4.355910 -14.324724 0.204111 -0.000006 0.000001 -3.001780 -5.000213 -7.998744 0.000193 -0.930692 53.872899 0.462667 -32.232001 116.287481 27.314026 0.000004 0.000003 0.000002 2.716923 9.010489 0.365572 -0.000004 -0.000006 3.008639 -5.000236 7.998876 -0.000148 3.890527 -177.316191 0.350929 -179.999991 0.000006 -1.158996 174.704833 -2.853786 -0.519378 -0.000004 -0.000001 0.050974 68.758504 6.898668 2.117547 25.465337 -7.355624 -0.000004 2.379865 172.756193 -1.429531 -0.000005 -0.000005 -1.077280 -8.983120 1.135799 0.700886 -0.000006 -0.000000 -0.076777 70.760473 -6.346670 -3.482881 25.458072 7.355619 -0.001726 
53.044300 -7.927385 85.663010 -4.689465 1.892519 -0.953725 -0.952334 0.092500 -0.115452 2.098340 0.177786 -0.230792 3.743409 0.175008 -0.232905 6.569396 -5.052292 0.128133 1.541323 3.589583 0.543481 -5.130136 -64.846533 -6.555795 -47.254500 -113.034904 -40.365175 -0.000001 0.000000 -0.000003 4.361705 -14.317233 0.203671 -0.000005 0.000001 -3.001779 -5.000211 -7.998742 0.000193 -0.962958 53.868848 0.501173 -32.200346 116.277332 27.268205 0.000003 0.000002 0.000002 2.727222 9.001281 0.365255 -0.000001 -0.000007 3.008640 -5.000232 7.998876 -0.000148 3.887701 -177.317189 0.351050 -179.999991 0.000005 -1.158996 174.704218 -2.855784 -0.519594 -0.000004 -0.000001 0.050974 68.758087 6.898675 2.117476 25.465336 -7.355625 -0.000004 2.374715 172.756166 -1.427671 -0.000005 -0.000004 -1.077260 -8.988433 1.134104 0.700941 -0.000007 0.000000 -0.076777 70.761497 -6.345258 -3.486685 25.458068 7.355620 -0.001726 
53.049801 -7.937624 85.663803 -4.687996 1.893290 -0.953561 -0.951991 0.091850 -0.115818 2.099030 0.177229 -0.231271 3.744097 0.174446 -0.233377 6.567491 -5.052679 0.122971 1.541288 3.584856 0.538911 -5.145457 -64.843596 -6.573042 -47.246512 -113.034501 -40.346662 -0.000000 -0.000001 -0.000003 4.366330 -14.309072 0.203005 -0.000004 0.000001 -3.001780 -5.000212 -7.998745 0.000193 -0.994750 53.865187 0.539154 -32.167783 116.268070 27.220419 0.000004 0.000001 0.000002 2.736533 8.991334 0.365065 -0.000003 -0.000006 3.008640 -5.000234 7.998875 -0.000148 3.884936 -177.318159 0.351212 -179.999991 0.000005 -1.158996 174.703630 -2.857766 -0.519807 -0.000004 -0.000001 0.050974 68.757766 6.898654 2.117492 25.465341 -7.355624 -0.000004 2.369846 172.756139 -1.425868 -0.000004 -0.000005 -1.077260 -8.993313 1.132538 0.700978 -0.000006 -0.000000 -0.076777 70.762262 -6.344002 -3.490028 25.458067 7.355619 -0.001726 
53.054501 -7.931573 85.659203 -4.686614 1.893882 -0.953388 -0.951661 0.091208 -0.116174 2.099680 0.176709 -0.231786 3.744748 0.173920 -0.233885 6.565704 -5.052619 0.118099 1.541730 3.580036 0.534555 -5.158853 -64.840721 -6.588097 -47.238886 -113.034235 -40.326970 0.000001 -0.000000 -0.000002 4.369508 -14.300135 0.202068 -0.000006 0.000001 -3.001780 -5.000209 -7.998744 0.000193 -1.025963 53.861933 0.576497 -32.136863 116.258125 27.173231 0.000005 0.000002 0.000002 2.744661 8.980477 0.365027 -0.000002 -0.000007 3.008640 -5.000233 7.998876 -0.000147 3.882235 -177.318145 0.351489 -179.999991 0.000005 -1.158996 174.703098 -2.858756 -0.519925 -0.000004 -0.000001 0.050974 68.757349 6.898665 2.117520 25.465343 -7.355625 -0.000004 2.365322 172.756111 -1.424156 -0.000005 -0.000005 -1.077280 -8.997667 1.131162 0.700998 -0.000006 0.000000 -0.076777 70.762836 -6.342839 -3.493196 25.458074 7.355619 -0.001725 
